<svg width="16" height="17" viewBox="0 0 16 17" fill="none" xmlns="http://www.w3.org/2000/svg">
<g id="alert-circle-outline">
<path id="Vector" d="M14 8.5C14 5.1875 11.3125 2.5 8 2.5C4.6875 2.5 2 5.1875 2 8.5C2 11.8125 4.6875 14.5 8 14.5C11.3125 14.5 14 11.8125 14 8.5Z" stroke="black" stroke-miterlimit="10"/>
<path id="Vector_2" d="M7.8205 5.68906L7.99987 9.5L8.17893 5.68906C8.18004 5.6647 8.17617 5.64037 8.16755 5.61756C8.15893 5.59474 8.14576 5.57392 8.12882 5.55637C8.11189 5.53882 8.09155 5.52491 8.06906 5.51549C8.04656 5.50606 8.02238 5.50133 7.998 5.50156C7.9739 5.50179 7.9501 5.50687 7.92801 5.5165C7.90591 5.52613 7.88599 5.54012 7.86942 5.55762C7.85286 5.57512 7.83999 5.59578 7.83158 5.61836C7.82317 5.64094 7.8194 5.66499 7.8205 5.68906Z" stroke="black" stroke-linecap="round" stroke-linejoin="round"/>
<path id="Vector_3" d="M8 11.9972C7.87639 11.9972 7.75555 11.9605 7.65277 11.8919C7.54999 11.8232 7.46988 11.7256 7.42258 11.6114C7.37527 11.4972 7.36289 11.3715 7.38701 11.2503C7.41113 11.129 7.47065 11.0177 7.55806 10.9303C7.64547 10.8428 7.75683 10.7833 7.87807 10.7592C7.99931 10.7351 8.12497 10.7475 8.23918 10.7948C8.35338 10.8421 8.45099 10.9222 8.51967 11.025C8.58834 11.1277 8.625 11.2486 8.625 11.3722C8.625 11.538 8.55915 11.6969 8.44194 11.8141C8.32473 11.9313 8.16576 11.9972 8 11.9972Z" fill="black"/>
</g>
</svg>
