<svg width="16" height="16" viewBox="0 0 16 16" fill="none" xmlns="http://www.w3.org/2000/svg">
<g id="bookmark">
<path id="Vector" d="M12.5 15C12.3777 15.0004 12.2595 14.9559 12.1678 14.875L8 11.1691L3.83219 14.875C3.76006 14.9391 3.67093 14.981 3.57553 14.9956C3.48014 15.0101 3.38256 14.9968 3.29458 14.9572C3.2066 14.9175 3.13197 14.8533 3.0797 14.7721C3.02743 14.691 2.99975 14.5965 3 14.5V3C3.00058 2.46974 3.21148 1.96137 3.58643 1.58643C3.96137 1.21148 4.46975 1.00058 5 1H11C11.5303 1.00058 12.0386 1.21148 12.4136 1.58643C12.7885 1.96137 12.9994 2.46974 13 3V14.5C13 14.6326 12.9473 14.7598 12.8536 14.8536C12.7598 14.9473 12.6326 15 12.5 15Z" fill="#006684"/>
</g>
</svg>
