<svg width="17" height="17" viewBox="0 0 17 17" fill="none" xmlns="http://www.w3.org/2000/svg">
<g id="Email">
<rect width="16" height="16" transform="translate(0.5 0.5)" fill="white" style="mix-blend-mode:multiply"/>
<path id="Vector" d="M14.5 3.5H2.5C2.23478 3.5 1.98043 3.60536 1.79289 3.79289C1.60536 3.98043 1.5 4.23478 1.5 4.5V12.5C1.5 12.7652 1.60536 13.0196 1.79289 13.2071C1.98043 13.3946 2.23478 13.5 2.5 13.5H14.5C14.7652 13.5 15.0196 13.3946 15.2071 13.2071C15.3946 13.0196 15.5 12.7652 15.5 12.5V4.5C15.5 4.23478 15.3946 3.98043 15.2071 3.79289C15.0196 3.60536 14.7652 3.5 14.5 3.5ZM13.4 4.5L8.5 7.89L3.6 4.5H13.4ZM2.5 12.5V4.955L8.215 8.91C8.2987 8.96806 8.39813 8.99918 8.5 8.99918C8.60187 8.99918 8.7013 8.96806 8.785 8.91L14.5 4.955V12.5H2.5Z" fill="white"/>
</g>
</svg>
