<svg width="24" height="24" viewBox="0 0 24 24" fill="none" xmlns="http://www.w3.org/2000/svg">
<g id="vuesax/linear/gallery-edit">
<g id="vuesax/linear/gallery-edit_2">
<g id="gallery-edit">
<path id="Vector" d="M9 10C10.1046 10 11 9.10457 11 8C11 6.89543 10.1046 6 9 6C7.89543 6 7 6.89543 7 8C7 9.10457 7.89543 10 9 10Z" stroke="#006684" stroke-width="1.5" stroke-linecap="round" stroke-linejoin="round"/>
<path id="Vector_2" d="M13 2H9C4 2 2 4 2 9V15C2 20 4 22 9 22H15C20 22 22 20 22 15V10" stroke="#006684" stroke-width="1.5" stroke-linecap="round" stroke-linejoin="round"/>
<path id="Vector_3" d="M19.14 2.59L15.51 6.22C15.37 6.36 15.23 6.63 15.21 6.83L15.01 8.22C14.94 8.72 15.29 9.07 15.79 9L17.18 8.8C17.37 8.77 17.65 8.64 17.79 8.5L21.42 4.87C22.05 4.24 22.34 3.52 21.42 2.6C20.49 1.66 19.77 1.96 19.14 2.59Z" stroke="#006684" stroke-width="1.5" stroke-miterlimit="10" stroke-linecap="round" stroke-linejoin="round"/>
<path id="Vector_4" d="M18.62 3.11C18.93 4.21 19.79 5.07 20.89 5.38" stroke="#006684" stroke-width="1.5" stroke-miterlimit="10" stroke-linecap="round" stroke-linejoin="round"/>
<path id="Vector_5" d="M2.67004 18.95L7.60004 15.64C8.39004 15.11 9.53004 15.17 10.24 15.78L10.57 16.07C11.35 16.74 12.61 16.74 13.39 16.07L17.55 12.5C18.33 11.83 19.59 11.83 20.37 12.5L22 13.9" stroke="#006684" stroke-width="1.5" stroke-linecap="round" stroke-linejoin="round"/>
</g>
</g>
</g>
</svg>
