<svg width="16" height="17" viewBox="0 0 16 17" fill="none" xmlns="http://www.w3.org/2000/svg">
<g id="search-outline">
<path id="Vector" d="M6.90906 2.5C5.93814 2.5 4.98903 2.78791 4.18174 3.32733C3.37444 3.86674 2.74524 4.63343 2.37368 5.53045C2.00213 6.42746 1.90491 7.41451 2.09433 8.36677C2.28375 9.31904 2.75129 10.1937 3.43783 10.8803C4.12438 11.5668 4.99909 12.0344 5.95135 12.2238C6.90362 12.4132 7.89067 12.316 8.78768 11.9444C9.6847 11.5729 10.4514 10.9437 10.9908 10.1364C11.5302 9.3291 11.8181 8.37998 11.8181 7.40906C11.818 6.10712 11.3008 4.85853 10.3802 3.93792C9.45959 3.01731 8.211 2.50008 6.90906 2.5Z" stroke="#0091BC" stroke-miterlimit="10"/>
<path id="Vector_2" d="M10.5718 11.0716L14.0002 14.5" stroke="#0091BC" stroke-miterlimit="10" stroke-linecap="round"/>
</g>
</svg>
