<svg width="24" height="24" viewBox="0 0 24 24" fill="none" xmlns="http://www.w3.org/2000/svg">
<g id="send">
<path id="Vector" d="M22.3402 10.643L22.3327 10.6397L2.31328 2.33625C2.1449 2.26577 1.96167 2.23813 1.77999 2.2558C1.59831 2.27347 1.42384 2.33589 1.27219 2.4375C1.11197 2.54248 0.980359 2.68565 0.889207 2.85413C0.798055 3.0226 0.750218 3.2111 0.75 3.40265V8.71312C0.750089 8.97499 0.841528 9.22862 1.00856 9.4303C1.17558 9.63199 1.40774 9.76908 1.665 9.81796L12.5836 11.8369C12.6265 11.845 12.6652 11.8679 12.6931 11.9015C12.7209 11.9351 12.7362 11.9774 12.7362 12.0211C12.7362 12.0648 12.7209 12.1071 12.6931 12.1407C12.6652 12.1743 12.6265 12.1972 12.5836 12.2053L1.66547 14.2242C1.40828 14.273 1.17614 14.4099 1.00903 14.6114C0.841932 14.8129 0.750328 15.0663 0.75 15.3281V20.6395C0.749876 20.8224 0.795166 21.0025 0.881807 21.1636C0.968448 21.3247 1.09373 21.4618 1.24641 21.5625C1.43006 21.6845 1.6456 21.7497 1.86609 21.75C2.01938 21.7499 2.1711 21.7191 2.31234 21.6595L22.3313 13.4034L22.3402 13.3992C22.6096 13.2834 22.8392 13.0911 23.0006 12.8462C23.1619 12.6013 23.2479 12.3144 23.2479 12.0211C23.2479 11.7278 23.1619 11.4409 23.0006 11.196C22.8392 10.951 22.6096 10.7588 22.3402 10.643Z" fill="white"/>
</g>
</svg>
