<svg width="16" height="17" viewBox="0 0 16 17" fill="none" xmlns="http://www.w3.org/2000/svg">
<g id="share-social-outline">
<path id="Vector" d="M4 10C4.82843 10 5.5 9.32844 5.5 8.50002C5.5 7.67159 4.82843 7.00002 4 7.00002C3.17157 7.00002 2.5 7.67159 2.5 8.50002C2.5 9.32844 3.17157 10 4 10Z" stroke="black" stroke-linecap="round" stroke-linejoin="round"/>
<path id="Vector_2" d="M12 5.50002C12.8284 5.50002 13.5 4.82844 13.5 4.00002C13.5 3.17159 12.8284 2.50002 12 2.50002C11.1716 2.50002 10.5 3.17159 10.5 4.00002C10.5 4.82844 11.1716 5.50002 12 5.50002Z" stroke="black" stroke-linecap="round" stroke-linejoin="round"/>
<path id="Vector_3" d="M12 14.5C12.8284 14.5 13.5 13.8284 13.5 13C13.5 12.1716 12.8284 11.5 12 11.5C11.1716 11.5 10.5 12.1716 10.5 13C10.5 13.8284 11.1716 14.5 12 14.5Z" stroke="black" stroke-linecap="round" stroke-linejoin="round"/>
<path id="Vector_4" d="M5.30762 9.23532L10.6932 12.2647M10.6932 4.73532L5.30762 7.7647" stroke="black" stroke-linecap="round" stroke-linejoin="round"/>
</g>
</svg>
